ffmpeg version 6.1.1-3ubuntu5 Copyright (c) 2000-2023 the FFmpeg developers
  built with gcc 13 (Ubuntu 13.2.0-23ubuntu3)
  configuration: --prefix=/usr --extra-version=3ubuntu5 --toolchain=hardened --libdir=/usr/lib/x86_64-linux-gnu --incdir=/usr/include/x86_64-linux-gnu --arch=amd64 --enable-gpl --disable-stripping --disable-omx --enable-gnutls --enable-libaom --enable-libass --enable-libbs2b --enable-libcaca --enable-libcdio --enable-libcodec2 --enable-libdav1d --enable-libflite --enable-libfontconfig --enable-libfreetype --enable-libfribidi --enable-libglslang --enable-libgme --enable-libgsm --enable-libharfbuzz --enable-libmp3lame --enable-libmysofa --enable-libopenjpeg --enable-libopenmpt --enable-libopus --enable-librubberband --enable-libshine --enable-libsnappy --enable-libsoxr --enable-libspeex --enable-libtheora --enable-libtwolame --enable-libvidstab --enable-libvorbis --enable-libvpx --enable-libwebp --enable-libx265 --enable-libxml2 --enable-libxvid --enable-libzimg --enable-openal --enable-opencl --enable-opengl --disable-sndio --enable-libvpl --disable-libmfx --enable-libdc1394 --enable-libdrm --enable-libiec61883 --enable-chromaprint --enable-frei0r --enable-ladspa --enable-libbluray --enable-libjack --enable-libpulse --enable-librabbitmq --enable-librist --enable-libsrt --enable-libssh --enable-libsvtav1 --enable-libx264 --enable-libzmq --enable-libzvbi --enable-lv2 --enable-sdl2 --enable-libplacebo --enable-librav1e --enable-pocketsphinx --enable-librsvg --enable-libjxl --enable-shared
  libavutil      58. 29.100 / 58. 29.100
  libavcodec     60. 31.102 / 60. 31.102
  libavformat    60. 16.100 / 60. 16.100
  libavdevice    60.  3.100 / 60.  3.100
  libavfilter     9. 12.100 /  9. 12.100
  libswscale      7.  5.100 /  7.  5.100
  libswresample   4. 12.100 /  4. 12.100
  libpostproc    57.  3.100 / 57.  3.100
Input #0, flv, from 'rtmp://192.168.3.99:1935/live/stream':
  Metadata:
    |RtmpSampleAccess: true
    Server          : NGINX RTMP (github.com/arut/nginx-rtmp-module)
    displayWidth    : 1920
    displayHeight   : 1080
    fps             : 25
    profile         : 
    level           : 
  Duration: 00:00:00.00, start: 10.472000, bitrate: N/A
  Stream #0:0: Audio: aac (LC), 44100 Hz, stereo, fltp, 128 kb/s
  Stream #0:1: Video: h264 (High), yuv420p(tv, bt709, progressive), 1920x1080 [SAR 1:1 DAR 16:9], 1999 kb/s, 25 fps, 25 tbr, 1k tbn
Output #0, mpegts, to 'capturas/rtmp_20250629_20-21-04/recebido_rtmp.ts':
  Metadata:
    |RtmpSampleAccess: true
    Server          : NGINX RTMP (github.com/arut/nginx-rtmp-module)
    displayWidth    : 1920
    displayHeight   : 1080
    fps             : 25
    profile         : 
    level           : 
    encoder         : Lavf60.16.100
  Stream #0:0: Video: h264 (High), yuv420p(tv, bt709, progressive), 1920x1080 [SAR 1:1 DAR 16:9], q=2-31, 1999 kb/s, 25 fps, 25 tbr, 90k tbn
  Stream #0:1: Audio: aac (LC), 44100 Hz, stereo, fltp, 128 kb/s
Stream mapping:
  Stream #0:1 -> #0:0 (copy)
  Stream #0:0 -> #0:1 (copy)
Press [q] to stop, [?] for help
size=       0kB time=00:00:00.00 bitrate=N/A speed=N/A    size=     512kB time=00:00:02.43 bitrate=1720.4kbits/s speed=3.37x    size=     512kB time=00:00:02.94 bitrate=1422.3kbits/s speed= 2.3x    size=     512kB time=00:00:03.27 bitrate=1281.1kbits/s speed=1.77x    size=     768kB time=00:00:03.94 bitrate=1594.0kbits/s speed=1.66x    size=    1024kB time=00:00:04.99 bitrate=1680.4kbits/s speed=1.73x    size=    1024kB time=00:00:05.59 bitrate=1499.0kbits/s speed=1.65x    size=    1280kB time=00:00:05.99 bitrate=1750.3kbits/s speed=1.52x    size=    1536kB time=00:00:06.80 bitrate=1849.6kbits/s speed=1.53x    